<svg width="206" height="96" viewBox="0 0 206 96" fill="none" xmlns="http://www.w3.org/2000/svg">
<g filter="url(#filter0_d_321_24)">
<path d="M24.3694 73.4231C25.8839 73.9615 27.0702 74.8077 27.9284 75.9615C28.7866 77.0897 29.2157 78.4615 29.2157 80.0769C29.2157 82.4359 28.2818 84.2564 26.414 85.5385C24.5461 86.8205 21.8454 87.4615 18.3116 87.4615H4V60.5385H17.5544C20.9367 60.5385 23.5113 61.1795 25.2781 62.4615C27.045 63.7179 27.9284 65.4231 27.9284 67.5769C27.9284 68.859 27.6129 70.0128 26.9819 71.0385C26.3761 72.0385 25.5053 72.8333 24.3694 73.4231ZM11.4208 66.0385V71.2308H16.57C19.0941 71.2308 20.3561 70.359 20.3561 68.6154C20.3561 66.8974 19.0941 66.0385 16.57 66.0385H11.4208ZM17.7058 81.9615C20.3309 81.9615 21.6434 81.0513 21.6434 79.2308C21.6434 77.4103 20.3309 76.5 17.7058 76.5H11.4208V81.9615H17.7058Z" fill="#424242"/>
<path d="M45.7064 88C42.9047 88 40.3806 87.3974 38.1341 86.1923C35.9129 84.9872 34.1587 83.3205 32.8714 81.1923C31.6094 79.0641 30.9783 76.6667 30.9783 74C30.9783 71.3333 31.6094 68.9359 32.8714 66.8077C34.1587 64.6795 35.9129 63.0128 38.1341 61.8077C40.3806 60.6026 42.9047 60 45.7064 60C48.5082 60 51.0196 60.6026 53.2408 61.8077C55.4873 63.0128 57.2415 64.6795 58.5036 66.8077C59.7909 68.9359 60.4345 71.3333 60.4345 74C60.4345 76.6667 59.7909 79.0641 58.5036 81.1923C57.2415 83.3205 55.4873 84.9872 53.2408 86.1923C51.0196 87.3974 48.5082 88 45.7064 88ZM45.7064 81.6923C47.0442 81.6923 48.2558 81.3718 49.3411 80.7308C50.4265 80.0897 51.2847 79.1923 51.9157 78.0385C52.5467 76.859 52.8622 75.5128 52.8622 74C52.8622 72.4872 52.5467 71.1538 51.9157 70C51.2847 68.8205 50.4265 67.9103 49.3411 67.2692C48.2558 66.6282 47.0442 66.3077 45.7064 66.3077C44.3687 66.3077 43.1571 66.6282 42.0717 67.2692C40.9864 67.9103 40.1282 68.8205 39.4972 70C38.8661 71.1538 38.5506 72.4872 38.5506 74C38.5506 75.5128 38.8661 76.859 39.4972 78.0385C40.1282 79.1923 40.9864 80.0897 42.0717 80.7308C43.1571 81.3718 44.3687 81.6923 45.7064 81.6923Z" fill="#424242"/>
<path d="M63.6036 60.5385H76.1358C79.0385 60.5385 81.6131 61.0897 83.8595 62.1923C86.1059 63.2949 87.8476 64.859 89.0844 66.8846C90.3212 68.9103 90.9396 71.2821 90.9396 74C90.9396 76.7179 90.3212 79.0897 89.0844 81.1154C87.8476 83.141 86.1059 84.7051 83.8595 85.8077C81.6131 86.9103 79.0385 87.4615 76.1358 87.4615H63.6036V60.5385ZM75.8329 81.3846C78.1046 81.3846 79.9219 80.7308 81.2849 79.4231C82.6732 78.1154 83.3673 76.3077 83.3673 74C83.3673 71.6923 82.6732 69.8846 81.2849 68.5769C79.9219 67.2692 78.1046 66.6154 75.8329 66.6154H71.1002V81.3846H75.8329Z" fill="#424242"/>
<path d="M107.178 77.8077V87.4615H99.6817V77.6923L89.5727 60.5385H97.4858L103.771 71.2308L110.056 60.5385H117.325L107.178 77.8077Z" fill="#424242"/>
<path d="M119.684 87.8077C118.472 87.8077 117.45 87.3974 116.617 86.5769C115.784 85.7564 115.368 84.7179 115.368 83.4615C115.368 82.1795 115.771 81.141 116.579 80.3462C117.412 79.5513 118.447 79.1538 119.684 79.1538C120.946 79.1538 121.981 79.5513 122.788 80.3462C123.596 81.141 124 82.1795 124 83.4615C124 84.7179 123.584 85.7564 122.751 86.5769C121.943 87.3974 120.921 87.8077 119.684 87.8077Z" fill="#424242"/>
<path d="M4 1.07692H19.132V54.9231H4V1.07692Z" fill="#424242"/>
<path d="M53.2834 40.6154H45.0296V54.9231H29.8976V1.07692H54.3534C59.1936 1.07692 63.3969 1.89744 66.9633 3.53846C70.5298 5.1282 73.2811 7.4359 75.2171 10.4615C77.1532 13.4359 78.1213 16.9487 78.1213 21C78.1213 24.8974 77.2042 28.3077 75.37 31.2308C73.5868 34.1026 71.0138 36.359 67.6512 38L79.1912 54.9231H62.9893L53.2834 40.6154ZM62.8364 21C62.8364 18.4872 62.0467 16.5385 60.4673 15.1538C58.8879 13.7692 56.5442 13.0769 53.4363 13.0769H45.0296V28.8462H53.4363C56.5442 28.8462 58.8879 28.1795 60.4673 26.8462C62.0467 25.4615 62.8364 23.5128 62.8364 21Z" fill="#424242"/>
<path d="M113.447 56C107.792 56 102.697 54.7949 98.1623 52.3846C93.6787 49.9744 90.1378 46.641 87.5393 42.3846C84.9919 38.1282 83.7181 33.3333 83.7181 28C83.7181 22.6667 84.9919 17.8718 87.5393 13.6154C90.1378 9.35898 93.6787 6.02564 98.1623 3.61538C102.697 1.20513 107.792 0 113.447 0C119.103 0 124.172 1.20513 128.656 3.61538C133.19 6.02564 136.731 9.35898 139.278 13.6154C141.877 17.8718 143.176 22.6667 143.176 28C143.176 33.3333 141.877 38.1282 139.278 42.3846C136.731 46.641 133.19 49.9744 128.656 52.3846C124.172 54.7949 119.103 56 113.447 56ZM113.447 43.3846C116.147 43.3846 118.593 42.7436 120.784 41.4615C122.975 40.1795 124.707 38.3846 125.981 36.0769C127.254 33.7179 127.891 31.0256 127.891 28C127.891 24.9744 127.254 22.3077 125.981 20C124.707 17.641 122.975 15.8205 120.784 14.5385C118.593 13.2564 116.147 12.6154 113.447 12.6154C110.747 12.6154 108.301 13.2564 106.11 14.5385C103.92 15.8205 102.187 17.641 100.914 20C99.6398 22.3077 99.003 24.9744 99.003 28C99.003 31.0256 99.6398 33.7179 100.914 36.0769C102.187 38.3846 103.92 40.1795 106.11 41.4615C108.301 42.7436 110.747 43.3846 113.447 43.3846Z" fill="#424242"/>
<path d="M202 1.07692V54.9231H189.543L165.928 26.2308V54.9231H151.102V1.07692H163.559L187.174 29.7692V1.07692H202Z" fill="#424242"/>
</g>
<defs>
<filter id="filter0_d_321_24" x="0" y="0" width="206" height="96" filterUnits="userSpaceOnUse" color-interpolation-filters="sRGB">
<feFlood flood-opacity="0" result="BackgroundImageFix"/>
<feColorMatrix in="SourceAlpha" type="matrix" values="0 0 0 0 0 0 0 0 0 0 0 0 0 0 0 0 0 0 127 0" result="hardAlpha"/>
<feOffset dy="4"/>
<feGaussianBlur stdDeviation="2"/>
<feComposite in2="hardAlpha" operator="out"/>
<feColorMatrix type="matrix" values="0 0 0 0 0 0 0 0 0 0 0 0 0 0 0 0 0 0 0.25 0"/>
<feBlend mode="normal" in2="BackgroundImageFix" result="effect1_dropShadow_321_24"/>
<feBlend mode="normal" in="SourceGraphic" in2="effect1_dropShadow_321_24" result="shape"/>
</filter>
</defs>
</svg>
