<svg width="133" height="58" viewBox="0 0 133 58" fill="none" xmlns="http://www.w3.org/2000/svg">
<path d="M13.9191 48.1085C14.954 48.4739 15.7647 49.0481 16.3511 49.831C16.9375 50.5966 17.2307 51.5275 17.2307 52.6236C17.2307 54.2244 16.5926 55.4597 15.3162 56.3297C14.0399 57.1996 12.1943 57.6346 9.77961 57.6346H0V39.3654H9.26217C11.5734 39.3654 13.3327 39.8004 14.5401 40.6703C15.7474 41.5229 16.3511 42.6799 16.3511 44.1415C16.3511 45.0114 16.1355 45.7944 15.7043 46.4904C15.2903 47.169 14.6953 47.7083 13.9191 48.1085ZM5.07091 43.0975V46.6209H8.5895C10.3143 46.6209 11.1767 46.0293 11.1767 44.8462C11.1767 43.6804 10.3143 43.0975 8.5895 43.0975H5.07091ZM9.36565 53.9025C11.1594 53.9025 12.0563 53.2848 12.0563 52.0494C12.0563 50.8141 11.1594 50.1964 9.36565 50.1964H5.07091V53.9025H9.36565Z" fill="#424242"/>
<path d="M28.4994 58C26.5849 58 24.8601 57.5911 23.325 56.7734C21.8072 55.9556 20.6084 54.8246 19.7288 53.3805C18.8664 51.9364 18.4352 50.3095 18.4352 48.5C18.4352 46.6905 18.8664 45.0636 19.7288 43.6195C20.6084 42.1754 21.8072 41.0444 23.325 40.2266C24.8601 39.4089 26.5849 39 28.4994 39C30.4139 39 32.1301 39.4089 33.6479 40.2266C35.183 41.0444 36.3817 42.1754 37.2441 43.6195C38.1238 45.0636 38.5636 46.6905 38.5636 48.5C38.5636 50.3095 38.1238 51.9364 37.2441 53.3805C36.3817 54.8246 35.183 55.9556 33.6479 56.7734C32.1301 57.5911 30.4139 58 28.4994 58ZM28.4994 53.7198C29.4135 53.7198 30.2414 53.5023 30.9831 53.0673C31.7248 52.6323 32.3112 52.0234 32.7424 51.2404C33.1736 50.44 33.3892 49.5266 33.3892 48.5C33.3892 47.4734 33.1736 46.5687 32.7424 45.7857C32.3112 44.9853 31.7248 44.3677 30.9831 43.9327C30.2414 43.4977 29.4135 43.2802 28.4994 43.2802C27.5853 43.2802 26.7573 43.4977 26.0157 43.9327C25.274 44.3677 24.6876 44.9853 24.2564 45.7857C23.8252 46.5687 23.6096 47.4734 23.6096 48.5C23.6096 49.5266 23.8252 50.44 24.2564 51.2404C24.6876 52.0234 25.274 52.6323 26.0157 53.0673C26.7573 53.5023 27.5853 53.7198 28.4994 53.7198Z" fill="#424242"/>
<path d="M40.7292 39.3654H49.2928C51.2763 39.3654 53.0356 39.7395 54.5707 40.4876C56.1057 41.2358 57.2958 42.2972 58.141 43.6717C58.9861 45.0462 59.4087 46.6557 59.4087 48.5C59.4087 50.3443 58.9861 51.9538 58.141 53.3283C57.2958 54.7028 56.1057 55.7642 54.5707 56.5124C53.0356 57.2605 51.2763 57.6346 49.2928 57.6346H40.7292V39.3654ZM49.0858 53.511C50.6381 53.511 51.88 53.0673 52.8114 52.1799C53.76 51.2926 54.2343 50.0659 54.2343 48.5C54.2343 46.9341 53.76 45.7074 52.8114 44.8201C51.88 43.9327 50.6381 43.489 49.0858 43.489H45.8518V53.511H49.0858Z" fill="#424242"/>
<path d="M70.5052 51.0838V57.6346H65.3825V51.0055L58.4747 39.3654H63.8819L68.1767 46.6209L72.4714 39.3654H77.4389L70.5052 51.0838Z" fill="#424242"/>
<path d="M79.0506 57.8695C78.2227 57.8695 77.5241 57.5911 76.955 57.0343C76.3858 56.4776 76.1012 55.7729 76.1012 54.9203C76.1012 54.0504 76.3772 53.3457 76.9291 52.8063C77.4983 52.2669 78.2055 51.9973 79.0506 51.9973C79.913 51.9973 80.6202 52.2669 81.1721 52.8063C81.724 53.3457 82 54.0504 82 54.9203C82 55.7729 81.7154 56.4776 81.1462 57.0343C80.5943 57.5911 79.8958 57.8695 79.0506 57.8695Z" fill="#424242"/>
<path d="M1 0.711538H11.088V36.2885H1V0.711538Z" fill="#424242"/>
<path d="M33.8556 26.8352H28.3531V36.2885H18.2651V0.711538H34.5689C37.7957 0.711538 40.5979 1.25366 42.9756 2.33791C45.3532 3.38828 47.1874 4.913 48.4781 6.91209C49.7688 8.87729 50.4142 11.1983 50.4142 13.875C50.4142 16.4501 49.8028 18.7033 48.58 20.6346C47.3912 22.5321 45.6759 24.0229 43.4341 25.1071L51.1275 36.2885H40.3262L33.8556 26.8352ZM40.2243 13.875C40.2243 12.2147 39.6978 10.9272 38.6449 10.0124C37.5919 9.09753 36.0294 8.64011 33.9575 8.64011H28.3531V19.0591H33.9575C36.0294 19.0591 37.5919 18.6186 38.6449 17.7376C39.6978 16.8228 40.2243 15.5353 40.2243 13.875Z" fill="#424242"/>
<path d="M73.9647 37C70.1945 37 66.7979 36.2038 63.7749 34.6113C60.7858 33.0188 58.4252 30.8164 56.6929 28.0041C54.9946 25.1919 54.1454 22.0238 54.1454 18.5C54.1454 14.9762 54.9946 11.8082 56.6929 8.99588C58.4252 6.18361 60.7858 3.98123 63.7749 2.38874C66.7979 0.796245 70.1945 0 73.9647 0C77.735 0 81.1146 0.796245 84.1037 2.38874C87.1267 3.98123 89.4873 6.18361 91.1857 8.99588C92.9179 11.8082 93.7841 14.9762 93.7841 18.5C93.7841 22.0238 92.9179 25.1919 91.1857 28.0041C89.4873 30.8164 87.1267 33.0188 84.1037 34.6113C81.1146 36.2038 77.735 37 73.9647 37ZM73.9647 28.6648C75.765 28.6648 77.3953 28.2413 78.8559 27.3942C80.3164 26.5472 81.4713 25.3613 82.3204 23.8365C83.1696 22.2779 83.5942 20.4991 83.5942 18.5C83.5942 16.5009 83.1696 14.739 82.3204 13.2143C81.4713 11.6557 80.3164 10.4528 78.8559 9.60577C77.3953 8.7587 75.765 8.33517 73.9647 8.33517C72.1645 8.33517 70.5341 8.7587 69.0736 9.60577C67.6131 10.4528 66.4582 11.6557 65.609 13.2143C64.7599 14.739 64.3353 16.5009 64.3353 18.5C64.3353 20.4991 64.7599 22.2779 65.609 23.8365C66.4582 25.3613 67.6131 26.5472 69.0736 27.3942C70.5341 28.2413 72.1645 28.6648 73.9647 28.6648Z" fill="#424242"/>
<path d="M133 0.711538V36.2885H124.695L108.952 17.331V36.2885H99.0677V0.711538H107.372L123.116 19.669V0.711538H133Z" fill="#424242"/>
</svg>
