<svg width="36" height="36" viewBox="0 0 36 36" fill="none" xmlns="http://www.w3.org/2000/svg">
<path d="M6.39432 8.76846L6.69067 8.4375H6.67969V4.21875C6.67969 1.8924 8.57208 0 10.8984 0H25.0312C27.3576 0 29.25 1.8924 29.25 4.21875V8.40701L29.5637 8.75198C31.0388 10.3749 31.8516 12.4766 31.8516 14.6703V31.7812C31.8516 34.1076 29.9592 36 27.6328 36H8.36719C6.04083 36 4.14844 34.1076 4.14844 31.7812V14.6398C4.14844 12.4698 4.94604 10.3846 6.39432 8.76846ZM25.0312 2.8125H10.8984C10.1231 2.8125 9.49219 3.44339 9.49219 4.21875V5.57941L9.54327 5.625H26.3743L26.4375 5.5676V4.21875C26.4375 3.44339 25.8066 2.8125 25.0312 2.8125ZM6.96094 31.7812C6.96094 32.5566 7.59183 33.1875 8.36719 33.1875H27.6328C28.4082 33.1875 29.0391 32.5566 29.0391 31.7812V14.6703C29.0391 13.1781 28.4862 11.7482 27.4826 10.6441L25.4767 8.4375H10.4672L8.48886 10.6455C7.50366 11.7449 6.96094 13.1635 6.96094 14.6398V31.7812ZM17.4062 19.8984H12.0938L19.8984 29.3203L18.4958 22.7109H23.6953L15.8906 12.5859L17.4062 19.8984Z" fill="#424242"/>
</svg>
