<svg width="15" height="15" viewBox="0 0 15 15" fill="none" xmlns="http://www.w3.org/2000/svg">
<path d="M0 10.2804C0 9.9658 0.264254 9.63748 0.792763 9.29549C1.32127 8.93981 1.74265 8.76197 2.0569 8.76197C2.31401 8.76197 2.52113 8.88509 2.67825 9.13133C2.83538 9.37756 2.94251 9.64432 2.99964 9.9316C3.07106 10.2189 3.16391 10.4856 3.27818 10.7319C3.39245 10.9781 3.53529 11.1012 3.7067 11.1012C3.94953 11.1012 4.26378 10.8413 4.64945 10.3215C5.0494 9.78796 5.57077 9.00137 6.21355 7.9617C6.85633 6.92202 7.34198 6.16279 7.67052 5.68399C8.0419 5.1368 8.399 4.63748 8.74182 4.18605C9.09892 3.73461 9.40602 3.34473 9.66313 3.01642C9.93453 2.67442 10.1988 2.37346 10.4559 2.11354C10.7273 1.83995 10.9487 1.62107 11.1201 1.45691C11.3058 1.27907 11.4986 1.12175 11.6986 0.984952C11.8986 0.848153 12.0486 0.752394 12.1486 0.697674C12.2628 0.629275 12.3914 0.574555 12.5342 0.533516C12.6913 0.478796 12.7985 0.451436 12.8556 0.451436C12.9127 0.437756 13.0056 0.424077 13.1342 0.410397C13.2627 0.396717 13.3413 0.389877 13.3698 0.389877C13.4127 0.389877 13.5555 0.328317 13.7984 0.205198C14.0555 0.0683995 14.284 0 14.484 0C14.6697 0 14.8125 0.0683995 14.9125 0.205198C15.0125 0.328317 15.0268 0.430917 14.9554 0.512996C14.8839 0.581395 14.6268 0.820793 14.184 1.23119C13.7555 1.62791 13.3484 2.01778 12.9627 2.40082C12.5914 2.77018 12.1057 3.31053 11.5058 4.02189C10.9201 4.71956 10.3631 5.45144 9.83454 6.21751C9.29175 6.99726 8.69182 7.90698 8.03476 8.94665C7.39198 9.98632 6.87061 10.814 6.47066 11.4295C6.08499 12.0451 5.66361 12.6607 5.20652 13.2763C4.74943 13.8782 4.31377 14.316 3.89954 14.5896C3.4853 14.8632 3.06392 15 2.6354 15C2.2783 15 1.94263 14.8153 1.62838 14.446C1.31413 14.0766 1.07844 13.7004 0.921319 13.3174C0.778479 12.9343 0.621355 12.4555 0.449946 11.881C0.278538 11.3064 0.17855 10.985 0.149982 10.9166C0.049994 10.6293 0 10.4172 0 10.2804Z" fill="#424242"/>
</svg>
