<svg width="36" height="35" viewBox="0 0 36 35" fill="none" xmlns="http://www.w3.org/2000/svg">
<path d="M24.2578 16.543C19.0239 16.543 14.7656 20.683 14.7656 25.7715C14.7656 30.86 19.0239 35 24.2578 35C29.4917 35 33.75 30.86 33.75 25.7715C33.75 20.683 29.4917 16.543 24.2578 16.543ZM24.2578 32.2656C20.5746 32.2656 17.5781 29.3523 17.5781 25.7715C17.5781 22.1906 20.5746 19.2773 24.2578 19.2773C27.941 19.2773 30.9375 22.1906 30.9375 25.7715C30.9375 29.3523 27.941 32.2656 24.2578 32.2656ZM13.9287 32.2656H6.46875C5.69339 32.2656 5.0625 31.6523 5.0625 30.8984V6.83594C5.0625 6.08212 5.69339 5.46875 6.46875 5.46875H8.78906V10.8691H22.8516V5.46875H25.1016C25.8769 5.46875 26.5078 6.08212 26.5078 6.83594V14.0097C27.4908 14.187 28.4337 14.4778 29.3203 14.8684V6.83594C29.3203 4.5742 27.4279 2.73438 25.1016 2.73438H19.7982C19.2176 1.14288 17.6537 0 15.8203 0C13.987 0 12.4231 1.14288 11.8424 2.73438H6.46875C4.1424 2.73438 2.25 4.5742 2.25 6.83594V30.8984C2.25 33.1602 4.1424 35 6.46875 35H16.4364C15.4641 34.2197 14.6173 33.2972 13.9287 32.2656ZM14.4141 5.46875V4.10156C14.4141 3.34774 15.045 2.73438 15.8203 2.73438C16.5957 2.73438 17.2266 3.34774 17.2266 4.10156V5.46875H20.0391V8.13477H11.6016V5.46875H14.4141ZM25.5938 24.4043H27.9844V27.1387H22.7812V21.1914H25.5938V24.4043Z" fill="white"/>
</svg>
