<svg width="36" height="36" viewBox="0 0 36 36" fill="none" xmlns="http://www.w3.org/2000/svg">
<path d="M36 8.38003L32.7514 5.13145L34.8223 3.0585L32.8339 1.07196L30.7639 3.14393L27.6539 0.0339355L23.8594 3.82842L20.3459 0.314975L14.6512 6.00973L21.2791 12.6377L12.6431 21.282L5.94084 14.5796L0.246023 20.2743L3.79462 23.8229L0 27.6175L3.1583 30.7759L1.05244 32.8838L3.04087 34.8703L5.14582 32.7634L8.34609 35.9638L12.1406 32.1691L15.6189 35.6474L21.3137 29.9527L14.6306 23.2695L23.2667 14.6253L30.0241 21.3827L35.7189 15.688L32.2054 12.1745L36 8.38003ZM8.34609 31.9887L3.97498 27.6175L5.78215 25.8104L10.1533 30.1815L8.34609 31.9887ZM17.3389 29.9525L15.619 31.6723L4.22107 20.2743L5.94084 18.5545L17.3389 29.9525ZM30.0241 17.4077L18.6261 6.00973L20.3459 4.28995L31.744 15.688L30.0241 17.4077ZM30.218 10.187L25.8469 5.81587L27.6539 4.00891L32.025 8.38003L30.218 10.187Z" fill="#424242"/>
</svg>
